<?xml version="1.0" encoding="UTF-8" standalone="no"?>
<!DOCTYPE svg PUBLIC "-//W3C//DTD SVG 1.1//EN"
 "http://www.w3.org/Graphics/SVG/1.1/DTD/svg11.dtd">
<!-- Generated by graphviz version 15.0.0 (20260523.1842)
 -->
<!-- Title: basin Pages: 1 -->
<svg width="424pt" height="1019pt"
 viewBox="0.00 0.00 424.00 1019.00" xmlns="http://www.w3.org/2000/svg" xmlns:xlink="http://www.w3.org/1999/xlink">
<g id="graph0" class="graph" transform="scale(1 1) rotate(0) translate(4 1014.75)">
<title>basin</title>
<polygon fill="white" stroke="none" points="-4,4 -4,-1014.75 419.75,-1014.75 419.75,4 -4,4"/>
<text xml:space="preserve" text-anchor="start" x="8" y="-44.2" font-family="Helvetica,sans-Serif" font-size="9.00" fill="#555555">PROCEDURE basin — population: VERBS ONLY (795 coupled pairs, 419 words).</text>
<text xml:space="preserve" text-anchor="start" x="8" y="-34.45" font-family="Helvetica,sans-Serif" font-size="9.00" fill="#555555">Sinks (bordered) are COMPUTED: purity &gt;= 0.9, in&#45;degree &gt;= 5.</text>
<text xml:space="preserve" text-anchor="start" x="8" y="-24.7" font-family="Helvetica,sans-Serif" font-size="9.00" fill="#555555">Their grouping into a &#39;procedure&#39; basin is a READING, an editorial layer, not a computed property.</text>
<text xml:space="preserve" text-anchor="start" x="8" y="-14.95" font-family="Helvetica,sans-Serif" font-size="9.00" fill="#555555">Edges are displacement&#45;coupled and split&#45;half certified; labels are shrunken full&#45;data lift.</text>
<text xml:space="preserve" text-anchor="start" x="8" y="-5.2" font-family="Helvetica,sans-Serif" font-size="9.00" fill="#555555">Lifts are NOT comparable across populations: the verb restriction compresses them to roughly half.</text>
<!-- reach -->
<g id="node1" class="node">
<title>reach</title>
<path fill="#d0e6f5" stroke="black" stroke-width="2" d="M215.38,-389.75C215.38,-389.75 185.38,-389.75 185.38,-389.75 179.38,-389.75 173.38,-383.75 173.38,-377.75 173.38,-377.75 173.38,-365.75 173.38,-365.75 173.38,-359.75 179.38,-353.75 185.38,-353.75 185.38,-353.75 215.38,-353.75 215.38,-353.75 221.38,-353.75 227.38,-359.75 227.38,-365.75 227.38,-365.75 227.38,-377.75 227.38,-377.75 227.38,-383.75 221.38,-389.75 215.38,-389.75"/>
<text xml:space="preserve" text-anchor="middle" x="200.38" y="-365.95" font-family="Helvetica,sans-Serif" font-size="14.00">reach</text>
</g>
<!-- prepare -->
<g id="node2" class="node">
<title>prepare</title>
<path fill="#d0e6f5" stroke="black" stroke-width="2" d="M219.62,-227.75C219.62,-227.75 181.12,-227.75 181.12,-227.75 175.12,-227.75 169.12,-221.75 169.12,-215.75 169.12,-215.75 169.12,-203.75 169.12,-203.75 169.12,-197.75 175.12,-191.75 181.12,-191.75 181.12,-191.75 219.62,-191.75 219.62,-191.75 225.62,-191.75 231.62,-197.75 231.62,-203.75 231.62,-203.75 231.62,-215.75 231.62,-215.75 231.62,-221.75 225.62,-227.75 219.62,-227.75"/>
<text xml:space="preserve" text-anchor="middle" x="200.38" y="-203.95" font-family="Helvetica,sans-Serif" font-size="14.00">prepare</text>
</g>
<!-- continue -->
<g id="node3" class="node">
<title>continue</title>
<path fill="#d0e6f5" stroke="black" stroke-width="2" d="M221.88,-599.75C221.88,-599.75 178.88,-599.75 178.88,-599.75 172.88,-599.75 166.88,-593.75 166.88,-587.75 166.88,-587.75 166.88,-575.75 166.88,-575.75 166.88,-569.75 172.88,-563.75 178.88,-563.75 178.88,-563.75 221.88,-563.75 221.88,-563.75 227.88,-563.75 233.88,-569.75 233.88,-575.75 233.88,-575.75 233.88,-587.75 233.88,-587.75 233.88,-593.75 227.88,-599.75 221.88,-599.75"/>
<text xml:space="preserve" text-anchor="middle" x="200.38" y="-575.95" font-family="Helvetica,sans-Serif" font-size="14.00">continue</text>
</g>
<!-- approach -->
<g id="node4" class="node">
<title>approach</title>
<path fill="#d0e6f5" stroke="black" stroke-width="2" d="M224.5,-110.75C224.5,-110.75 176.25,-110.75 176.25,-110.75 170.25,-110.75 164.25,-104.75 164.25,-98.75 164.25,-98.75 164.25,-86.75 164.25,-86.75 164.25,-80.75 170.25,-74.75 176.25,-74.75 176.25,-74.75 224.5,-74.75 224.5,-74.75 230.5,-74.75 236.5,-80.75 236.5,-86.75 236.5,-86.75 236.5,-98.75 236.5,-98.75 236.5,-104.75 230.5,-110.75 224.5,-110.75"/>
<text xml:space="preserve" text-anchor="middle" x="200.38" y="-86.95" font-family="Helvetica,sans-Serif" font-size="14.00">approach</text>
</g>
<!-- examined -->
<g id="node5" class="node">
<title>examined</title>
<path fill="#d0e6f5" stroke="black" stroke-width="2" d="M343.25,-755.75C343.25,-755.75 292,-755.75 292,-755.75 286,-755.75 280,-749.75 280,-743.75 280,-743.75 280,-731.75 280,-731.75 280,-725.75 286,-719.75 292,-719.75 292,-719.75 343.25,-719.75 343.25,-719.75 349.25,-719.75 355.25,-725.75 355.25,-731.75 355.25,-731.75 355.25,-743.75 355.25,-743.75 355.25,-749.75 349.25,-755.75 343.25,-755.75"/>
<text xml:space="preserve" text-anchor="middle" x="317.62" y="-731.95" font-family="Helvetica,sans-Serif" font-size="14.00">examined</text>
</g>
<!-- followed -->
<g id="node6" class="node">
<title>followed</title>
<path fill="#d0e6f5" stroke="black" stroke-width="2" d="M221.12,-848.75C221.12,-848.75 179.62,-848.75 179.62,-848.75 173.62,-848.75 167.62,-842.75 167.62,-836.75 167.62,-836.75 167.62,-824.75 167.62,-824.75 167.62,-818.75 173.62,-812.75 179.62,-812.75 179.62,-812.75 221.12,-812.75 221.12,-812.75 227.12,-812.75 233.12,-818.75 233.12,-824.75 233.12,-824.75 233.12,-836.75 233.12,-836.75 233.12,-842.75 227.12,-848.75 221.12,-848.75"/>
<text xml:space="preserve" text-anchor="middle" x="200.38" y="-824.95" font-family="Helvetica,sans-Serif" font-size="14.00">followed</text>
</g>
<!-- replaced -->
<g id="node7" class="node">
<title>replaced</title>
<path fill="#d0e6f5" stroke="black" stroke-width="2" d="M339.5,-977.75C339.5,-977.75 295.75,-977.75 295.75,-977.75 289.75,-977.75 283.75,-971.75 283.75,-965.75 283.75,-965.75 283.75,-953.75 283.75,-953.75 283.75,-947.75 289.75,-941.75 295.75,-941.75 295.75,-941.75 339.5,-941.75 339.5,-941.75 345.5,-941.75 351.5,-947.75 351.5,-953.75 351.5,-953.75 351.5,-965.75 351.5,-965.75 351.5,-971.75 345.5,-977.75 339.5,-977.75"/>
<text xml:space="preserve" text-anchor="middle" x="317.62" y="-953.95" font-family="Helvetica,sans-Serif" font-size="14.00">replaced</text>
</g>
<!-- ask -->
<g id="node8" class="node">
<title>ask</title>
<path fill="white" stroke="black" d="M105.62,-362.75C105.62,-362.75 75.62,-362.75 75.62,-362.75 69.62,-362.75 63.62,-356.75 63.62,-350.75 63.62,-350.75 63.62,-338.75 63.62,-338.75 63.62,-332.75 69.62,-326.75 75.62,-326.75 75.62,-326.75 105.62,-326.75 105.62,-326.75 111.62,-326.75 117.62,-332.75 117.62,-338.75 117.62,-338.75 117.62,-350.75 117.62,-350.75 117.62,-356.75 111.62,-362.75 105.62,-362.75"/>
<text xml:space="preserve" text-anchor="middle" x="90.62" y="-339.73" font-family="Helvetica,sans-Serif" font-size="12.00">ask</text>
</g>
<!-- ask&#45;&gt;reach -->
<g id="edge1" class="edge">
<title>ask&#45;&gt;reach</title>
<path fill="none" stroke="#777777" d="M117.98,-351.35C131.06,-354.63 147.09,-358.65 161.46,-362.25"/>
<polygon fill="#777777" stroke="#777777" points="160.52,-365.62 171.07,-364.66 162.22,-358.83 160.52,-365.62"/>
<text xml:space="preserve" text-anchor="middle" x="142.5" y="-360.4" font-family="Times,serif" font-size="8.00" fill="#555555">4x</text>
</g>
<!-- find -->
<g id="node9" class="node">
<title>find</title>
<path fill="white" stroke="black" d="M105.62,-308.75C105.62,-308.75 75.62,-308.75 75.62,-308.75 69.62,-308.75 63.62,-302.75 63.62,-296.75 63.62,-296.75 63.62,-284.75 63.62,-284.75 63.62,-278.75 69.62,-272.75 75.62,-272.75 75.62,-272.75 105.62,-272.75 105.62,-272.75 111.62,-272.75 117.62,-278.75 117.62,-284.75 117.62,-284.75 117.62,-296.75 117.62,-296.75 117.62,-302.75 111.62,-308.75 105.62,-308.75"/>
<text xml:space="preserve" text-anchor="middle" x="90.62" y="-285.73" font-family="Helvetica,sans-Serif" font-size="12.00">find</text>
</g>
<!-- find&#45;&gt;reach -->
<g id="edge2" class="edge">
<title>find&#45;&gt;reach</title>
<path fill="none" stroke="#777777" d="M116.08,-309.13C130.61,-320.06 149.26,-334.08 165.23,-346.08"/>
<polygon fill="#777777" stroke="#777777" points="162.97,-348.76 173.06,-351.97 167.17,-343.16 162.97,-348.76"/>
<text xml:space="preserve" text-anchor="middle" x="142.5" y="-333.4" font-family="Times,serif" font-size="8.00" fill="#555555">4x</text>
</g>
<!-- find&#45;&gt;prepare -->
<g id="edge6" class="edge">
<title>find&#45;&gt;prepare</title>
<path fill="none" stroke="#777777" d="M116.08,-272.37C130.61,-261.44 149.26,-247.42 165.23,-235.42"/>
<polygon fill="#777777" stroke="#777777" points="167.17,-238.34 173.06,-229.53 162.97,-232.74 167.17,-238.34"/>
<text xml:space="preserve" text-anchor="middle" x="142.5" y="-257.25" font-family="Times,serif" font-size="8.00" fill="#555555">3x</text>
</g>
<!-- mention -->
<g id="node10" class="node">
<title>mention</title>
<path fill="white" stroke="black" d="M108,-470.75C108,-470.75 73.25,-470.75 73.25,-470.75 67.25,-470.75 61.25,-464.75 61.25,-458.75 61.25,-458.75 61.25,-446.75 61.25,-446.75 61.25,-440.75 67.25,-434.75 73.25,-434.75 73.25,-434.75 108,-434.75 108,-434.75 114,-434.75 120,-440.75 120,-446.75 120,-446.75 120,-458.75 120,-458.75 120,-464.75 114,-470.75 108,-470.75"/>
<text xml:space="preserve" text-anchor="middle" x="90.62" y="-447.73" font-family="Helvetica,sans-Serif" font-size="12.00">mention</text>
</g>
<!-- mention&#45;&gt;reach -->
<g id="edge3" class="edge">
<title>mention&#45;&gt;reach</title>
<path fill="none" stroke="#777777" d="M116.08,-434.37C130.61,-423.44 149.26,-409.42 165.23,-397.42"/>
<polygon fill="#777777" stroke="#777777" points="167.17,-400.34 173.06,-391.53 162.97,-394.74 167.17,-400.34"/>
<text xml:space="preserve" text-anchor="middle" x="142.5" y="-419.25" font-family="Times,serif" font-size="8.00" fill="#555555">3x</text>
</g>
<!-- send -->
<g id="node11" class="node">
<title>send</title>
<path fill="white" stroke="black" d="M105.62,-416.75C105.62,-416.75 75.62,-416.75 75.62,-416.75 69.62,-416.75 63.62,-410.75 63.62,-404.75 63.62,-404.75 63.62,-392.75 63.62,-392.75 63.62,-386.75 69.62,-380.75 75.62,-380.75 75.62,-380.75 105.62,-380.75 105.62,-380.75 111.62,-380.75 117.62,-386.75 117.62,-392.75 117.62,-392.75 117.62,-404.75 117.62,-404.75 117.62,-410.75 111.62,-416.75 105.62,-416.75"/>
<text xml:space="preserve" text-anchor="middle" x="90.62" y="-393.73" font-family="Helvetica,sans-Serif" font-size="12.00">send</text>
</g>
<!-- send&#45;&gt;reach -->
<g id="edge4" class="edge">
<title>send&#45;&gt;reach</title>
<path fill="none" stroke="#777777" d="M117.98,-392.15C131.06,-388.87 147.09,-384.85 161.46,-381.25"/>
<polygon fill="#777777" stroke="#777777" points="162.22,-384.67 171.07,-378.84 160.52,-377.88 162.22,-384.67"/>
<text xml:space="preserve" text-anchor="middle" x="142.5" y="-389.02" font-family="Times,serif" font-size="8.00" fill="#555555">3x</text>
</g>
<!-- know -->
<g id="node12" class="node">
<title>know</title>
<path fill="white" stroke="black" d="M105.62,-200.75C105.62,-200.75 75.62,-200.75 75.62,-200.75 69.62,-200.75 63.62,-194.75 63.62,-188.75 63.62,-188.75 63.62,-176.75 63.62,-176.75 63.62,-170.75 69.62,-164.75 75.62,-164.75 75.62,-164.75 105.62,-164.75 105.62,-164.75 111.62,-164.75 117.62,-170.75 117.62,-176.75 117.62,-176.75 117.62,-188.75 117.62,-188.75 117.62,-194.75 111.62,-200.75 105.62,-200.75"/>
<text xml:space="preserve" text-anchor="middle" x="90.62" y="-177.72" font-family="Helvetica,sans-Serif" font-size="12.00">know</text>
</g>
<!-- know&#45;&gt;prepare -->
<g id="edge5" class="edge">
<title>know&#45;&gt;prepare</title>
<path fill="none" stroke="#777777" d="M117.98,-189.35C129.86,-192.33 144.18,-195.92 157.47,-199.25"/>
<polygon fill="#777777" stroke="#777777" points="156.3,-202.56 166.85,-201.6 158,-195.77 156.3,-202.56"/>
<text xml:space="preserve" text-anchor="middle" x="142.5" y="-198.4" font-family="Times,serif" font-size="8.00" fill="#555555">3x</text>
</g>
<!-- let -->
<g id="node13" class="node">
<title>let</title>
<path fill="white" stroke="black" d="M105.62,-254.75C105.62,-254.75 75.62,-254.75 75.62,-254.75 69.62,-254.75 63.62,-248.75 63.62,-242.75 63.62,-242.75 63.62,-230.75 63.62,-230.75 63.62,-224.75 69.62,-218.75 75.62,-218.75 75.62,-218.75 105.62,-218.75 105.62,-218.75 111.62,-218.75 117.62,-224.75 117.62,-230.75 117.62,-230.75 117.62,-242.75 117.62,-242.75 117.62,-248.75 111.62,-254.75 105.62,-254.75"/>
<text xml:space="preserve" text-anchor="middle" x="90.62" y="-231.72" font-family="Helvetica,sans-Serif" font-size="12.00">let</text>
</g>
<!-- let&#45;&gt;prepare -->
<g id="edge7" class="edge">
<title>let&#45;&gt;prepare</title>
<path fill="none" stroke="#777777" d="M117.98,-230.15C129.86,-227.17 144.18,-223.58 157.47,-220.25"/>
<polygon fill="#777777" stroke="#777777" points="158,-223.73 166.85,-217.9 156.3,-216.94 158,-223.73"/>
<text xml:space="preserve" text-anchor="middle" x="142.5" y="-227.02" font-family="Times,serif" font-size="8.00" fill="#555555">3x</text>
</g>
<!-- add -->
<g id="node14" class="node">
<title>add</title>
<path fill="white" stroke="black" d="M105.62,-146.75C105.62,-146.75 75.62,-146.75 75.62,-146.75 69.62,-146.75 63.62,-140.75 63.62,-134.75 63.62,-134.75 63.62,-122.75 63.62,-122.75 63.62,-116.75 69.62,-110.75 75.62,-110.75 75.62,-110.75 105.62,-110.75 105.62,-110.75 111.62,-110.75 117.62,-116.75 117.62,-122.75 117.62,-122.75 117.62,-134.75 117.62,-134.75 117.62,-140.75 111.62,-146.75 105.62,-146.75"/>
<text xml:space="preserve" text-anchor="middle" x="90.62" y="-123.72" font-family="Helvetica,sans-Serif" font-size="12.00">add</text>
</g>
<!-- add&#45;&gt;prepare -->
<g id="edge8" class="edge">
<title>add&#45;&gt;prepare</title>
<path fill="none" stroke="#777777" d="M116.08,-147.13C130.61,-158.06 149.26,-172.08 165.23,-184.08"/>
<polygon fill="#777777" stroke="#777777" points="162.97,-186.76 173.06,-189.97 167.17,-181.16 162.97,-186.76"/>
<text xml:space="preserve" text-anchor="middle" x="142.5" y="-171.4" font-family="Times,serif" font-size="8.00" fill="#555555">2x</text>
</g>
<!-- add&#45;&gt;approach -->
<g id="edge19" class="edge">
<title>add&#45;&gt;approach</title>
<path fill="none" stroke="#777777" d="M117.98,-119.94C128.48,-116.44 140.88,-112.29 152.79,-108.31"/>
<polygon fill="#777777" stroke="#777777" points="153.72,-111.7 162.09,-105.21 151.5,-105.06 153.72,-111.7"/>
<text xml:space="preserve" text-anchor="middle" x="142.5" y="-115.06" font-family="Times,serif" font-size="8.00" fill="#555555">2x</text>
</g>
<!-- go -->
<g id="node15" class="node">
<title>go</title>
<path fill="white" stroke="black" d="M105.62,-848.75C105.62,-848.75 75.62,-848.75 75.62,-848.75 69.62,-848.75 63.62,-842.75 63.62,-836.75 63.62,-836.75 63.62,-824.75 63.62,-824.75 63.62,-818.75 69.62,-812.75 75.62,-812.75 75.62,-812.75 105.62,-812.75 105.62,-812.75 111.62,-812.75 117.62,-818.75 117.62,-824.75 117.62,-824.75 117.62,-836.75 117.62,-836.75 117.62,-842.75 111.62,-848.75 105.62,-848.75"/>
<text xml:space="preserve" text-anchor="middle" x="90.62" y="-825.73" font-family="Helvetica,sans-Serif" font-size="12.00">go</text>
</g>
<!-- go&#45;&gt;followed -->
<g id="edge9" class="edge">
<title>go&#45;&gt;followed</title>
<path fill="none" stroke="#777777" d="M117.98,-830.75C129.24,-830.75 142.69,-830.75 155.38,-830.75"/>
<polygon fill="#777777" stroke="#777777" points="155.22,-834.25 165.22,-830.75 155.22,-827.25 155.22,-834.25"/>
<text xml:space="preserve" text-anchor="middle" x="142.5" y="-832.9" font-family="Times,serif" font-size="8.00" fill="#555555">2x</text>
</g>
<!-- take -->
<g id="node16" class="node">
<title>take</title>
<path fill="white" stroke="black" d="M105.62,-956.75C105.62,-956.75 75.62,-956.75 75.62,-956.75 69.62,-956.75 63.62,-950.75 63.62,-944.75 63.62,-944.75 63.62,-932.75 63.62,-932.75 63.62,-926.75 69.62,-920.75 75.62,-920.75 75.62,-920.75 105.62,-920.75 105.62,-920.75 111.62,-920.75 117.62,-926.75 117.62,-932.75 117.62,-932.75 117.62,-944.75 117.62,-944.75 117.62,-950.75 111.62,-956.75 105.62,-956.75"/>
<text xml:space="preserve" text-anchor="middle" x="90.62" y="-933.73" font-family="Helvetica,sans-Serif" font-size="12.00">take</text>
</g>
<!-- take&#45;&gt;followed -->
<g id="edge10" class="edge">
<title>take&#45;&gt;followed</title>
<path fill="none" stroke="#777777" d="M112.05,-920.53C115.04,-917.66 118.02,-914.67 120.75,-911.75 141.77,-889.21 142.21,-879.29 164.25,-857.75 164.52,-857.49 164.79,-857.23 165.06,-856.96"/>
<polygon fill="#777777" stroke="#777777" points="167.15,-859.79 172.32,-850.54 162.52,-854.54 167.15,-859.79"/>
<text xml:space="preserve" text-anchor="middle" x="142.5" y="-891.36" font-family="Times,serif" font-size="8.00" fill="#555555">2x</text>
</g>
<!-- make -->
<g id="node17" class="node">
<title>make</title>
<path fill="white" stroke="black" d="M105.62,-902.75C105.62,-902.75 75.62,-902.75 75.62,-902.75 69.62,-902.75 63.62,-896.75 63.62,-890.75 63.62,-890.75 63.62,-878.75 63.62,-878.75 63.62,-872.75 69.62,-866.75 75.62,-866.75 75.62,-866.75 105.62,-866.75 105.62,-866.75 111.62,-866.75 117.62,-872.75 117.62,-878.75 117.62,-878.75 117.62,-890.75 117.62,-890.75 117.62,-896.75 111.62,-902.75 105.62,-902.75"/>
<text xml:space="preserve" text-anchor="middle" x="90.62" y="-879.73" font-family="Helvetica,sans-Serif" font-size="12.00">make</text>
</g>
<!-- make&#45;&gt;followed -->
<g id="edge11" class="edge">
<title>make&#45;&gt;followed</title>
<path fill="none" stroke="#777777" d="M117.98,-871.54C129.59,-865.73 143.51,-858.74 156.54,-852.22"/>
<polygon fill="#777777" stroke="#777777" points="158.01,-855.39 165.38,-847.78 154.88,-849.14 158.01,-855.39"/>
<text xml:space="preserve" text-anchor="middle" x="142.5" y="-863.13" font-family="Times,serif" font-size="8.00" fill="#555555">2x</text>
</g>
<!-- kill -->
<g id="node18" class="node">
<title>kill</title>
<path fill="white" stroke="black" d="M105.62,-794.75C105.62,-794.75 75.62,-794.75 75.62,-794.75 69.62,-794.75 63.62,-788.75 63.62,-782.75 63.62,-782.75 63.62,-770.75 63.62,-770.75 63.62,-764.75 69.62,-758.75 75.62,-758.75 75.62,-758.75 105.62,-758.75 105.62,-758.75 111.62,-758.75 117.62,-764.75 117.62,-770.75 117.62,-770.75 117.62,-782.75 117.62,-782.75 117.62,-788.75 111.62,-794.75 105.62,-794.75"/>
<text xml:space="preserve" text-anchor="middle" x="90.62" y="-771.73" font-family="Helvetica,sans-Serif" font-size="12.00">kill</text>
</g>
<!-- kill&#45;&gt;followed -->
<g id="edge12" class="edge">
<title>kill&#45;&gt;followed</title>
<path fill="none" stroke="#777777" d="M117.98,-789.96C129.59,-795.77 143.51,-802.76 156.54,-809.28"/>
<polygon fill="#777777" stroke="#777777" points="154.88,-812.36 165.38,-813.72 158.01,-806.11 154.88,-812.36"/>
<text xml:space="preserve" text-anchor="middle" x="142.5" y="-805.9" font-family="Times,serif" font-size="8.00" fill="#555555">2x</text>
</g>
<!-- went -->
<g id="node21" class="node">
<title>went</title>
<path fill="white" stroke="black" d="M215.38,-782.75C215.38,-782.75 185.38,-782.75 185.38,-782.75 179.38,-782.75 173.38,-776.75 173.38,-770.75 173.38,-770.75 173.38,-758.75 173.38,-758.75 173.38,-752.75 179.38,-746.75 185.38,-746.75 185.38,-746.75 215.38,-746.75 215.38,-746.75 221.38,-746.75 227.38,-752.75 227.38,-758.75 227.38,-758.75 227.38,-770.75 227.38,-770.75 227.38,-776.75 221.38,-782.75 215.38,-782.75"/>
<text xml:space="preserve" text-anchor="middle" x="200.38" y="-759.73" font-family="Helvetica,sans-Serif" font-size="12.00">went</text>
</g>
<!-- kill&#45;&gt;went -->
<g id="edge26" class="edge">
<title>kill&#45;&gt;went</title>
<path fill="none" stroke="#777777" d="M117.88,-769.77C124.63,-768.25 131.92,-766.84 138.75,-766 146.09,-765.1 153.96,-764.6 161.52,-764.34"/>
<polygon fill="#777777" stroke="#777777" points="161.59,-767.84 171.52,-764.16 161.46,-760.84 161.59,-767.84"/>
<text xml:space="preserve" text-anchor="middle" x="142.5" y="-768.15" font-family="Times,serif" font-size="8.00" fill="#555555">3x</text>
</g>
<!-- brought -->
<g id="node19" class="node">
<title>brought</title>
<path fill="white" stroke="black" d="M216.62,-902.75C216.62,-902.75 184.12,-902.75 184.12,-902.75 178.12,-902.75 172.12,-896.75 172.12,-890.75 172.12,-890.75 172.12,-878.75 172.12,-878.75 172.12,-872.75 178.12,-866.75 184.12,-866.75 184.12,-866.75 216.62,-866.75 216.62,-866.75 222.62,-866.75 228.62,-872.75 228.62,-878.75 228.62,-878.75 228.62,-890.75 228.62,-890.75 228.62,-896.75 222.62,-902.75 216.62,-902.75"/>
<text xml:space="preserve" text-anchor="middle" x="200.38" y="-879.73" font-family="Helvetica,sans-Serif" font-size="12.00">brought</text>
</g>
<!-- brought&#45;&gt;examined -->
<g id="edge13" class="edge">
<title>brought&#45;&gt;examined</title>
<path fill="none" stroke="#777777" d="M227.17,-866.51C230.46,-863.74 233.66,-860.78 236.5,-857.75 262.82,-829.61 286.44,-791.97 301.1,-766.4"/>
<polygon fill="#777777" stroke="#777777" points="304.03,-768.32 305.89,-757.89 297.93,-764.89 304.03,-768.32"/>
<text xml:space="preserve" text-anchor="middle" x="258.25" y="-835.81" font-family="Times,serif" font-size="8.00" fill="#555555">2x</text>
</g>
<!-- like -->
<g id="node20" class="node">
<title>like</title>
<path fill="white" stroke="black" d="M105.62,-686.75C105.62,-686.75 75.62,-686.75 75.62,-686.75 69.62,-686.75 63.62,-680.75 63.62,-674.75 63.62,-674.75 63.62,-662.75 63.62,-662.75 63.62,-656.75 69.62,-650.75 75.62,-650.75 75.62,-650.75 105.62,-650.75 105.62,-650.75 111.62,-650.75 117.62,-656.75 117.62,-662.75 117.62,-662.75 117.62,-674.75 117.62,-674.75 117.62,-680.75 111.62,-686.75 105.62,-686.75"/>
<text xml:space="preserve" text-anchor="middle" x="90.62" y="-663.73" font-family="Helvetica,sans-Serif" font-size="12.00">like</text>
</g>
<!-- like&#45;&gt;continue -->
<g id="edge14" class="edge">
<title>like&#45;&gt;continue</title>
<path fill="none" stroke="#777777" d="M114.48,-650.3C129.94,-637.81 150.58,-621.15 167.64,-607.37"/>
<polygon fill="#777777" stroke="#777777" points="169.43,-610.43 175.01,-601.42 165.03,-604.98 169.43,-610.43"/>
<text xml:space="preserve" text-anchor="middle" x="142.5" y="-632.61" font-family="Times,serif" font-size="8.00" fill="#555555">2x</text>
</g>
<!-- went&#45;&gt;examined -->
<g id="edge15" class="edge">
<title>went&#45;&gt;examined</title>
<path fill="none" stroke="#777777" d="M227.82,-758.56C239.88,-755.73 254.55,-752.29 268.46,-749.03"/>
<polygon fill="#777777" stroke="#777777" points="268.98,-752.51 277.92,-746.82 267.38,-745.69 268.98,-752.51"/>
<text xml:space="preserve" text-anchor="middle" x="258.25" y="-754.21" font-family="Times,serif" font-size="8.00" fill="#555555">2x</text>
</g>
<!-- walked -->
<g id="node22" class="node">
<title>walked</title>
<path fill="white" stroke="black" d="M215.5,-728.75C215.5,-728.75 185.25,-728.75 185.25,-728.75 179.25,-728.75 173.25,-722.75 173.25,-716.75 173.25,-716.75 173.25,-704.75 173.25,-704.75 173.25,-698.75 179.25,-692.75 185.25,-692.75 185.25,-692.75 215.5,-692.75 215.5,-692.75 221.5,-692.75 227.5,-698.75 227.5,-704.75 227.5,-704.75 227.5,-716.75 227.5,-716.75 227.5,-722.75 221.5,-728.75 215.5,-728.75"/>
<text xml:space="preserve" text-anchor="middle" x="200.38" y="-705.73" font-family="Helvetica,sans-Serif" font-size="12.00">walked</text>
</g>
<!-- walked&#45;&gt;examined -->
<g id="edge16" class="edge">
<title>walked&#45;&gt;examined</title>
<path fill="none" stroke="#777777" d="M227.82,-716.94C239.88,-719.77 254.55,-723.21 268.46,-726.47"/>
<polygon fill="#777777" stroke="#777777" points="267.38,-729.81 277.92,-728.68 268.98,-722.99 267.38,-729.81"/>
<text xml:space="preserve" text-anchor="middle" x="258.25" y="-726.4" font-family="Times,serif" font-size="8.00" fill="#555555">2x</text>
</g>
<!-- note -->
<g id="node23" class="node">
<title>note</title>
<path fill="white" stroke="black" d="M105.62,-632.75C105.62,-632.75 75.62,-632.75 75.62,-632.75 69.62,-632.75 63.62,-626.75 63.62,-620.75 63.62,-620.75 63.62,-608.75 63.62,-608.75 63.62,-602.75 69.62,-596.75 75.62,-596.75 75.62,-596.75 105.62,-596.75 105.62,-596.75 111.62,-596.75 117.62,-602.75 117.62,-608.75 117.62,-608.75 117.62,-620.75 117.62,-620.75 117.62,-626.75 111.62,-632.75 105.62,-632.75"/>
<text xml:space="preserve" text-anchor="middle" x="90.62" y="-609.73" font-family="Helvetica,sans-Serif" font-size="12.00">note</text>
</g>
<!-- note&#45;&gt;continue -->
<g id="edge17" class="edge">
<title>note&#45;&gt;continue</title>
<path fill="none" stroke="#777777" d="M117.98,-606.68C129.16,-603.25 142.5,-599.17 155.12,-595.3"/>
<polygon fill="#777777" stroke="#777777" points="155.96,-598.71 164.49,-592.43 153.91,-592.01 155.96,-598.71"/>
<text xml:space="preserve" text-anchor="middle" x="142.5" y="-602.38" font-family="Times,serif" font-size="8.00" fill="#555555">2x</text>
</g>
<!-- stuck -->
<g id="node24" class="node">
<title>stuck</title>
<path fill="white" stroke="black" d="M215.38,-674.75C215.38,-674.75 185.38,-674.75 185.38,-674.75 179.38,-674.75 173.38,-668.75 173.38,-662.75 173.38,-662.75 173.38,-650.75 173.38,-650.75 173.38,-644.75 179.38,-638.75 185.38,-638.75 185.38,-638.75 215.38,-638.75 215.38,-638.75 221.38,-638.75 227.38,-644.75 227.38,-650.75 227.38,-650.75 227.38,-662.75 227.38,-662.75 227.38,-668.75 221.38,-674.75 215.38,-674.75"/>
<text xml:space="preserve" text-anchor="middle" x="200.38" y="-651.73" font-family="Helvetica,sans-Serif" font-size="12.00">stuck</text>
</g>
<!-- stuck&#45;&gt;examined -->
<g id="edge18" class="edge">
<title>stuck&#45;&gt;examined</title>
<path fill="none" stroke="#777777" d="M227.53,-675.13C243.22,-686.16 263.4,-700.34 280.58,-712.42"/>
<polygon fill="#777777" stroke="#777777" points="278.34,-715.12 288.54,-718.01 282.37,-709.4 278.34,-715.12"/>
<text xml:space="preserve" text-anchor="middle" x="258.25" y="-699.4" font-family="Times,serif" font-size="8.00" fill="#555555">2x</text>
</g>
<!-- had -->
<g id="node25" class="node">
<title>had</title>
<path fill="white" stroke="black" d="M215.38,-1010.75C215.38,-1010.75 185.38,-1010.75 185.38,-1010.75 179.38,-1010.75 173.38,-1004.75 173.38,-998.75 173.38,-998.75 173.38,-986.75 173.38,-986.75 173.38,-980.75 179.38,-974.75 185.38,-974.75 185.38,-974.75 215.38,-974.75 215.38,-974.75 221.38,-974.75 227.38,-980.75 227.38,-986.75 227.38,-986.75 227.38,-998.75 227.38,-998.75 227.38,-1004.75 221.38,-1010.75 215.38,-1010.75"/>
<text xml:space="preserve" text-anchor="middle" x="200.38" y="-987.73" font-family="Helvetica,sans-Serif" font-size="12.00">had</text>
</g>
<!-- had&#45;&gt;replaced -->
<g id="edge20" class="edge">
<title>had&#45;&gt;replaced</title>
<path fill="none" stroke="#777777" d="M227.82,-985.18C240.97,-981.41 257.23,-976.76 272.22,-972.46"/>
<polygon fill="#777777" stroke="#777777" points="272.75,-975.95 281.4,-969.84 270.83,-969.22 272.75,-975.95"/>
<text xml:space="preserve" text-anchor="middle" x="258.25" y="-979.39" font-family="Times,serif" font-size="8.00" fill="#555555">2x</text>
</g>
<!-- receive -->
<g id="node26" class="node">
<title>receive</title>
<path fill="white" stroke="black" d="M106.12,-578.75C106.12,-578.75 75.12,-578.75 75.12,-578.75 69.12,-578.75 63.12,-572.75 63.12,-566.75 63.12,-566.75 63.12,-554.75 63.12,-554.75 63.12,-548.75 69.12,-542.75 75.12,-542.75 75.12,-542.75 106.12,-542.75 106.12,-542.75 112.12,-542.75 118.12,-548.75 118.12,-554.75 118.12,-554.75 118.12,-566.75 118.12,-566.75 118.12,-572.75 112.12,-578.75 106.12,-578.75"/>
<text xml:space="preserve" text-anchor="middle" x="90.62" y="-555.73" font-family="Helvetica,sans-Serif" font-size="12.00">receive</text>
</g>
<!-- receive&#45;&gt;continue -->
<g id="edge21" class="edge">
<title>receive&#45;&gt;continue</title>
<path fill="none" stroke="#777777" d="M118.54,-566C129.61,-568.15 142.73,-570.71 155.14,-573.13"/>
<polygon fill="#777777" stroke="#777777" points="154.29,-576.53 164.78,-575.01 155.63,-569.66 154.29,-576.53"/>
<text xml:space="preserve" text-anchor="middle" x="142.5" y="-573.4" font-family="Times,serif" font-size="8.00" fill="#555555">2x</text>
</g>
<!-- has -->
<g id="node27" class="node">
<title>has</title>
<path fill="white" stroke="black" d="M215.38,-956.75C215.38,-956.75 185.38,-956.75 185.38,-956.75 179.38,-956.75 173.38,-950.75 173.38,-944.75 173.38,-944.75 173.38,-932.75 173.38,-932.75 173.38,-926.75 179.38,-920.75 185.38,-920.75 185.38,-920.75 215.38,-920.75 215.38,-920.75 221.38,-920.75 227.38,-926.75 227.38,-932.75 227.38,-932.75 227.38,-944.75 227.38,-944.75 227.38,-950.75 221.38,-956.75 215.38,-956.75"/>
<text xml:space="preserve" text-anchor="middle" x="200.38" y="-933.73" font-family="Helvetica,sans-Serif" font-size="12.00">has</text>
</g>
<!-- has&#45;&gt;replaced -->
<g id="edge22" class="edge">
<title>has&#45;&gt;replaced</title>
<path fill="none" stroke="#777777" d="M227.82,-943.57C240.84,-945.94 256.91,-948.87 271.79,-951.58"/>
<polygon fill="#777777" stroke="#777777" points="270.9,-954.98 281.37,-953.33 272.16,-948.09 270.9,-954.98"/>
<text xml:space="preserve" text-anchor="middle" x="258.25" y="-951.4" font-family="Times,serif" font-size="8.00" fill="#555555">2x</text>
</g>
<!-- decide -->
<g id="node28" class="node">
<title>decide</title>
<path fill="white" stroke="black" d="M105.62,-524.75C105.62,-524.75 75.62,-524.75 75.62,-524.75 69.62,-524.75 63.62,-518.75 63.62,-512.75 63.62,-512.75 63.62,-500.75 63.62,-500.75 63.62,-494.75 69.62,-488.75 75.62,-488.75 75.62,-488.75 105.62,-488.75 105.62,-488.75 111.62,-488.75 117.62,-494.75 117.62,-500.75 117.62,-500.75 117.62,-512.75 117.62,-512.75 117.62,-518.75 111.62,-524.75 105.62,-524.75"/>
<text xml:space="preserve" text-anchor="middle" x="90.62" y="-501.73" font-family="Helvetica,sans-Serif" font-size="12.00">decide</text>
</g>
<!-- decide&#45;&gt;continue -->
<g id="edge23" class="edge">
<title>decide&#45;&gt;continue</title>
<path fill="none" stroke="#777777" d="M117.98,-525.1C131.48,-534.49 148.12,-546.07 162.83,-556.31"/>
<polygon fill="#777777" stroke="#777777" points="160.71,-559.1 170.92,-561.94 164.71,-553.36 160.71,-559.1"/>
<text xml:space="preserve" text-anchor="middle" x="142.5" y="-546.4" font-family="Times,serif" font-size="8.00" fill="#555555">2x</text>
</g>
<!-- refuse -->
<g id="node29" class="node">
<title>refuse</title>
<path fill="white" stroke="black" d="M105.62,-92.75C105.62,-92.75 75.62,-92.75 75.62,-92.75 69.62,-92.75 63.62,-86.75 63.62,-80.75 63.62,-80.75 63.62,-68.75 63.62,-68.75 63.62,-62.75 69.62,-56.75 75.62,-56.75 75.62,-56.75 105.62,-56.75 105.62,-56.75 111.62,-56.75 117.62,-62.75 117.62,-68.75 117.62,-68.75 117.62,-80.75 117.62,-80.75 117.62,-86.75 111.62,-92.75 105.62,-92.75"/>
<text xml:space="preserve" text-anchor="middle" x="90.62" y="-69.72" font-family="Helvetica,sans-Serif" font-size="12.00">refuse</text>
</g>
<!-- refuse&#45;&gt;approach -->
<g id="edge24" class="edge">
<title>refuse&#45;&gt;approach</title>
<path fill="none" stroke="#777777" d="M117.86,-75.85C126.9,-76.48 137.06,-77.46 146.25,-79 148.16,-79.32 150.09,-79.67 152.04,-80.05"/>
<polygon fill="#777777" stroke="#777777" points="151.27,-83.47 161.79,-82.18 152.76,-76.63 151.27,-83.47"/>
<text xml:space="preserve" text-anchor="middle" x="142.5" y="-81.15" font-family="Times,serif" font-size="8.00" fill="#555555">2x</text>
</g>
<!-- required -->
<g id="node30" class="node">
<title>required</title>
<path fill="white" stroke="black" d="M108.75,-1010.75C108.75,-1010.75 72.5,-1010.75 72.5,-1010.75 66.5,-1010.75 60.5,-1004.75 60.5,-998.75 60.5,-998.75 60.5,-986.75 60.5,-986.75 60.5,-980.75 66.5,-974.75 72.5,-974.75 72.5,-974.75 108.75,-974.75 108.75,-974.75 114.75,-974.75 120.75,-980.75 120.75,-986.75 120.75,-986.75 120.75,-998.75 120.75,-998.75 120.75,-1004.75 114.75,-1010.75 108.75,-1010.75"/>
<text xml:space="preserve" text-anchor="middle" x="90.62" y="-987.73" font-family="Helvetica,sans-Serif" font-size="12.00">required</text>
</g>
<!-- required&#45;&gt;had -->
<g id="edge25" class="edge">
<title>required&#45;&gt;had</title>
<path fill="none" stroke="#777777" d="M121.07,-992.75C133.6,-992.75 148.37,-992.75 161.68,-992.75"/>
<polygon fill="#777777" stroke="#777777" points="161.4,-996.25 171.4,-992.75 161.4,-989.25 161.4,-996.25"/>
<text xml:space="preserve" text-anchor="middle" x="142.5" y="-994.9" font-family="Times,serif" font-size="8.00" fill="#555555">4x</text>
</g>
<!-- leave -->
<g id="node31" class="node">
<title>leave</title>
<path fill="white" stroke="black" d="M105.62,-740.75C105.62,-740.75 75.62,-740.75 75.62,-740.75 69.62,-740.75 63.62,-734.75 63.62,-728.75 63.62,-728.75 63.62,-716.75 63.62,-716.75 63.62,-710.75 69.62,-704.75 75.62,-704.75 75.62,-704.75 105.62,-704.75 105.62,-704.75 111.62,-704.75 117.62,-710.75 117.62,-716.75 117.62,-716.75 117.62,-728.75 117.62,-728.75 117.62,-734.75 111.62,-740.75 105.62,-740.75"/>
<text xml:space="preserve" text-anchor="middle" x="90.62" y="-717.73" font-family="Helvetica,sans-Serif" font-size="12.00">leave</text>
</g>
<!-- leave&#45;&gt;went -->
<g id="edge27" class="edge">
<title>leave&#45;&gt;went</title>
<path fill="none" stroke="#777777" d="M117.98,-733.02C131.29,-738.21 147.66,-744.59 162.21,-750.27"/>
<polygon fill="#777777" stroke="#777777" points="160.92,-753.52 171.5,-753.89 163.46,-746.99 160.92,-753.52"/>
<text xml:space="preserve" text-anchor="middle" x="142.5" y="-745.9" font-family="Times,serif" font-size="8.00" fill="#555555">3x</text>
</g>
</g>
</svg>
